<?xml version="1.0" encoding="UTF-8"?>
<!-- Generator: Adobe Illustrator 28.0.0, SVG Export Plug-In . SVG Version: 6.00 Build 0)  -->
<svg xmlns="http://www.w3.org/2000/svg" xmlns:xlink="http://www.w3.org/1999/xlink" version="1.1" id="Layer_1" x="0px" y="0px" viewBox="0 0 207.8 121.3" style="enable-background:new 0 0 207.8 121.3;" xml:space="preserve">
<style type="text/css">
	.st0{fill:none;}
	.st1{fill:#FFFFFF;}
	.st2{fill:none;stroke:#E5ECFF;stroke-width:0.73;}
	.st3{fill:#E5ECFF;}
	.st4{fill:#2667FF;}
</style>
<path class="st0" d="M0,121.3V0h207.8v121.3H0z"></path>
<path class="st1" d="M29.1,21.1h150.4c4,0,7.3,3.3,7.3,7.3V93c0,4-3.3,7.3-7.3,7.3H29.1c-4,0-7.3-3.3-7.3-7.3V28.3  C21.8,24.3,25.1,21.1,29.1,21.1z"></path>
<path class="st2" d="M90.8,73.8h27.6c3.4,0,6.2,2.8,6.2,6.2l0,0c0,3.4-2.8,6.2-6.2,6.2H90.8c-3.4,0-6.2-2.8-6.2-6.2l0,0  C84.7,76.5,87.4,73.8,90.8,73.8z"></path>
<path class="st3" d="M93,79.2h23.2c0.4,0,0.7,0.3,0.7,0.7l0,0c0,0.4-0.3,0.7-0.7,0.7H93c-0.4,0-0.7-0.3-0.7-0.7l0,0  C92.3,79.5,92.6,79.2,93,79.2z"></path>
<path class="st4" d="M51.9,42.5h2.5l2.4,4.5h0.1l2.4-4.5h2.5L58,49.3V53h-2.2v-3.7L51.9,42.5L51.9,42.5z M64.9,53.2  c-0.8,0-1.5-0.2-2.1-0.5s-1-0.8-1.3-1.4C61.2,50.7,61,50,61,49.2s0.2-1.5,0.5-2.2c0.3-0.6,0.8-1.1,1.3-1.4c0.6-0.3,1.3-0.5,2.1-0.5  s1.5,0.2,2.1,0.5s1,0.8,1.3,1.4c0.3,0.6,0.5,1.3,0.5,2.2s-0.2,1.5-0.5,2.1s-0.8,1.1-1.3,1.4S65.7,53.2,64.9,53.2z M64.9,51.5  c0.4,0,0.7-0.1,0.9-0.3c0.2-0.2,0.4-0.5,0.6-0.9c0.1-0.4,0.2-0.8,0.2-1.2s-0.1-0.9-0.2-1.2c-0.1-0.4-0.3-0.7-0.6-0.9  c-0.2-0.2-0.6-0.3-0.9-0.3S64.2,46.8,64,47c-0.2,0.2-0.4,0.5-0.6,0.9c-0.1,0.4-0.2,0.8-0.2,1.2s0.1,0.9,0.2,1.2  c0.1,0.4,0.3,0.7,0.6,0.9C64.3,51.4,64.6,51.5,64.9,51.5z M75.3,49.7v-4.5h2.2V53h-2.1v-1.4h-0.1c-0.2,0.5-0.5,0.8-0.9,1.1  s-0.9,0.4-1.5,0.4c-0.5,0-1-0.1-1.4-0.4c-0.4-0.2-0.7-0.6-0.9-1c-0.2-0.4-0.3-1-0.3-1.6v-5h2.2v4.7c0,0.5,0.1,0.8,0.4,1.1  s0.6,0.4,1,0.4c0.3,0,0.5-0.1,0.8-0.2s0.4-0.3,0.6-0.5C75.3,50.3,75.3,50,75.3,49.7z M79.3,53v-7.9h2.1v1.4h0.1  c0.2-0.5,0.4-0.9,0.7-1.1c0.3-0.2,0.7-0.4,1.2-0.4c0.1,0,0.2,0,0.4,0c0.1,0,0.2,0,0.3,0.1v2C84,47,83.9,47,83.7,47s-0.3,0-0.5,0  c-0.3,0-0.6,0.1-0.9,0.2s-0.4,0.3-0.6,0.6s-0.2,0.5-0.2,0.9v4.5L79.3,53L79.3,53z M88.2,44.3v-1.8h8.7v1.8h-3.2V53h-2.2v-8.7H88.2  L88.2,44.3z M98.3,53v-7.9h2.2V53H98.3z M99.4,44.1c-0.3,0-0.6-0.1-0.8-0.3c-0.2-0.2-0.3-0.5-0.3-0.8s0.1-0.6,0.3-0.8  c0.2-0.2,0.5-0.3,0.8-0.3s0.6,0.1,0.8,0.3c0.2,0.2,0.4,0.5,0.4,0.8s-0.1,0.6-0.4,0.8C100,44,99.7,44.1,99.4,44.1z M106.5,45.1v1.7  h-4.8v-1.7H106.5z M102.8,43.2h2.2v7.4c0,0.2,0,0.4,0.1,0.5s0.2,0.2,0.3,0.2s0.2,0.1,0.4,0.1c0.1,0,0.2,0,0.3,0c0.1,0,0.2,0,0.2,0  l0.3,1.6c-0.1,0-0.3,0.1-0.5,0.1s-0.4,0.1-0.7,0.1c-0.5,0-1,0-1.4-0.2s-0.7-0.4-0.9-0.8c-0.2-0.3-0.3-0.8-0.3-1.3V43.2L102.8,43.2z   M110.3,42.5V53h-2.2V42.5H110.3z M115.6,53.2c-0.8,0-1.5-0.2-2.1-0.5s-1-0.8-1.3-1.4c-0.3-0.6-0.5-1.3-0.5-2.2s0.2-1.5,0.5-2.2  c0.3-0.6,0.8-1.1,1.3-1.4c0.6-0.3,1.3-0.5,2-0.5c0.5,0,1,0.1,1.5,0.2c0.5,0.2,0.8,0.4,1.2,0.8c0.3,0.3,0.6,0.8,0.8,1.3  c0.2,0.5,0.3,1.1,0.3,1.8v0.6h-6.7v-1.4h4.6c0-0.3-0.1-0.6-0.2-0.8s-0.3-0.4-0.6-0.6c-0.2-0.1-0.5-0.2-0.8-0.2s-0.6,0.1-0.9,0.2  c-0.2,0.2-0.5,0.4-0.6,0.6c-0.1,0.3-0.2,0.5-0.2,0.8v1.3c0,0.4,0.1,0.7,0.2,1s0.4,0.5,0.6,0.7s0.6,0.2,0.9,0.2c0.2,0,0.5,0,0.7-0.1  s0.4-0.2,0.5-0.3c0.2-0.1,0.2-0.3,0.3-0.5l2,0.1c-0.1,0.5-0.3,0.9-0.6,1.3c-0.3,0.4-0.7,0.6-1.2,0.8  C116.9,53.1,116.3,53.2,115.6,53.2L115.6,53.2z M124.1,53V42.5h2.2v4.4h4.5v-4.4h2.2V53h-2.2v-4.4h-4.5V53H124.1z M138.5,53.2  c-0.8,0-1.5-0.2-2.1-0.5s-1-0.8-1.4-1.4c-0.3-0.6-0.5-1.3-0.5-2.2s0.2-1.5,0.5-2.2c0.3-0.6,0.8-1.1,1.3-1.4c0.6-0.3,1.2-0.5,2-0.5  c0.5,0,1,0.1,1.5,0.2c0.5,0.2,0.9,0.4,1.2,0.8c0.3,0.3,0.6,0.8,0.8,1.3s0.3,1.1,0.3,1.8v0.6h-6.7v-1.4h4.6c0-0.3-0.1-0.6-0.2-0.8  c-0.1-0.2-0.3-0.4-0.6-0.6c-0.2-0.1-0.5-0.2-0.8-0.2s-0.6,0.1-0.9,0.2c-0.2,0.2-0.4,0.4-0.6,0.6c-0.1,0.3-0.2,0.5-0.2,0.8v1.3  c0,0.4,0.1,0.7,0.2,1s0.4,0.5,0.6,0.7s0.6,0.2,0.9,0.2c0.2,0,0.5,0,0.7-0.1s0.4-0.2,0.5-0.3s0.2-0.3,0.3-0.5l2,0.1  c-0.1,0.5-0.3,0.9-0.6,1.3c-0.3,0.4-0.7,0.6-1.2,0.8C139.8,53.1,139.2,53.2,138.5,53.2L138.5,53.2z M143.6,53v-7.9h2.1v1.4h0.1  c0.1-0.5,0.4-0.9,0.7-1.1s0.7-0.4,1.2-0.4c0.1,0,0.2,0,0.4,0c0.1,0,0.2,0,0.3,0.1v2c-0.1,0-0.2-0.1-0.4-0.1s-0.4,0-0.5,0  c-0.3,0-0.6,0.1-0.9,0.2s-0.4,0.3-0.6,0.6c-0.1,0.2-0.2,0.5-0.2,0.9v4.5L143.6,53L143.6,53z M152.8,53.2c-0.8,0-1.5-0.2-2.1-0.5  s-1-0.8-1.4-1.4c-0.3-0.6-0.5-1.3-0.5-2.2s0.2-1.5,0.5-2.2c0.3-0.6,0.8-1.1,1.3-1.4c0.6-0.3,1.3-0.5,2-0.5c0.5,0,1,0.1,1.5,0.2  c0.5,0.2,0.9,0.4,1.2,0.8c0.3,0.3,0.6,0.8,0.8,1.3s0.3,1.1,0.3,1.8v0.6h-6.7v-1.4h4.6c0-0.3-0.1-0.6-0.2-0.8  c-0.1-0.2-0.3-0.4-0.6-0.6c-0.2-0.1-0.5-0.2-0.8-0.2s-0.6,0.1-0.9,0.2c-0.2,0.2-0.4,0.4-0.6,0.6c-0.1,0.3-0.2,0.5-0.2,0.8v1.3  c0,0.4,0.1,0.7,0.2,1s0.4,0.5,0.6,0.7s0.6,0.2,0.9,0.2c0.2,0,0.5,0,0.7-0.1s0.4-0.2,0.5-0.3s0.2-0.3,0.3-0.5l2,0.1  c-0.1,0.5-0.3,0.9-0.6,1.3c-0.3,0.4-0.7,0.6-1.2,0.8C154,53.1,153.4,53.2,152.8,53.2L152.8,53.2z"></path>
<rect x="39.2" y="58.9" class="st3" width="130.8" height="2.2"></rect>
<rect x="54.5" y="64.7" class="st3" width="100.3" height="2.2"></rect>
</svg>
