<?xml version="1.0" encoding="UTF-8"?>
<!-- Generator: Adobe Illustrator 28.0.0, SVG Export Plug-In . SVG Version: 6.00 Build 0)  -->
<svg xmlns="http://www.w3.org/2000/svg" xmlns:xlink="http://www.w3.org/1999/xlink" version="1.1" id="Layer_1" x="0px" y="0px" viewBox="0 0 207.8 121.3" style="enable-background:new 0 0 207.8 121.3;" xml:space="preserve">
<style type="text/css">
	.st0{fill:none;}
	.st1{fill:#FFFFFF;}
	.st2{fill:#2667FF;}
	.st3{fill:none;stroke:#FFFFFF;stroke-width:0.73;stroke-linecap:round;stroke-linejoin:round;}
	.st4{fill:#A1BDFF;}
	.st5{fill:#E5ECFF;}
</style>
<path class="st0" d="M0,121.3V0h207.8v121.3H0z"></path>
<path class="st1" d="M37.1,26.2h134.4c4,0,7.3,3.3,7.3,7.3v55.2c0,4-3.3,7.3-7.3,7.3H37.1c-4,0-7.3-3.3-7.3-7.3V33.4  C29.8,29.4,33,26.2,37.1,26.2z"></path>
<path class="st2" d="M45,35.6h13c1.6,0,2.9,1.3,2.9,2.9v13c0,1.6-1.3,2.9-2.9,2.9H45c-1.6,0-2.9-1.3-2.9-2.9v-13  C42,36.9,43.4,35.6,45,35.6z"></path>
<path class="st3" d="M51.5,41c0.1,0.2,0.2,0.4,0.2,0.5s-0.1,0.3-0.2,0.5l-0.7,1.2c-0.1,0.2-0.2,0.4-0.3,0.4  c-0.1,0.1-0.3,0.1-0.5,0.1h-1.4c-0.3,0-0.4,0-0.5-0.1s-0.2-0.2-0.3-0.4L47,42c-0.1-0.2-0.2-0.4-0.2-0.5s0.1-0.3,0.2-0.5l0.7-1.2  c0.1-0.2,0.2-0.4,0.3-0.4c0.1-0.1,0.3-0.1,0.5-0.1h1.4c0.3,0,0.4,0,0.5,0.1s0.2,0.2,0.3,0.4L51.5,41z"></path>
<path class="st3" d="M56.9,44.3c0.1,0.2,0.2,0.4,0.2,0.5s-0.1,0.3-0.2,0.5l-0.7,1.2c-0.1,0.2-0.2,0.4-0.3,0.4  C55.8,47,55.6,47,55.4,47H54c-0.3,0-0.4,0-0.5-0.1s-0.2-0.2-0.3-0.4l-0.7-1.2c-0.1-0.2-0.2-0.4-0.2-0.5s0.1-0.3,0.2-0.5l0.7-1.2  c0.1-0.2,0.2-0.4,0.3-0.4c0.1-0.1,0.3-0.1,0.5-0.1h1.4c0.3,0,0.4,0,0.5,0.1s0.2,0.2,0.3,0.4L56.9,44.3z"></path>
<path class="st3" d="M51.5,47c0.1,0.2,0.2,0.4,0.2,0.5s-0.1,0.3-0.2,0.5l-0.7,1.2c-0.1,0.2-0.2,0.4-0.3,0.4  c-0.1,0.1-0.3,0.1-0.5,0.1h-1.4c-0.3,0-0.4,0-0.5-0.1s-0.2-0.2-0.3-0.4L47,48c-0.1-0.2-0.2-0.4-0.2-0.5s0.1-0.3,0.2-0.5l0.7-1.2  c0.1-0.2,0.2-0.4,0.3-0.4c0.1-0.1,0.3-0.1,0.5-0.1h1.4c0.3,0,0.4,0,0.5,0.1s0.2,0.2,0.3,0.4L51.5,47z"></path>
<path class="st4" d="M71.3,37.5h80.1c2.1,0,3.8,1.7,3.8,3.8l0,0c0,2.1-1.7,3.8-3.8,3.8H71.3c-2.1,0-3.8-1.7-3.8-3.8l0,0  C67.5,39.2,69.2,37.5,71.3,37.5z"></path>
<path class="st5" d="M69.4,50.7h98c1,0,1.9,0.8,1.9,1.9l0,0c0,1-0.8,1.9-1.9,1.9h-98c-1,0-1.9-0.8-1.9-1.9l0,0  C67.5,51.5,68.3,50.7,69.4,50.7z"></path>
<path class="st5" d="M69.4,69.5h98c1,0,1.9,0.8,1.9,1.9l0,0c0,1-0.8,1.9-1.9,1.9h-98c-1,0-1.9-0.8-1.9-1.9l0,0  C67.5,70.4,68.3,69.5,69.4,69.5z"></path>
<path class="st5" d="M69.4,60.1H159c1,0,1.9,0.8,1.9,1.9l0,0c0,1-0.8,1.9-1.9,1.9H69.4c-1,0-1.9-0.8-1.9-1.9l0,0  C67.5,60.9,68.3,60.1,69.4,60.1z"></path>
<path class="st5" d="M69.4,78.9H159c1,0,1.9,0.8,1.9,1.9l0,0c0,1-0.8,1.9-1.9,1.9H69.4c-1,0-1.9-0.8-1.9-1.9l0,0  C67.5,79.8,68.3,78.9,69.4,78.9z"></path>
</svg>
