<?xml version="1.0" encoding="UTF-8"?>
<svg xmlns="http://www.w3.org/2000/svg" id="a" viewBox="0 0 207.83 121.35">
  <path d="m0,121.35V0h207.83v121.35H0Z" style="fill:none; stroke-width:0px;"></path>
  <path d="m0,121.35V0h207.83v121.35H0Z" style="fill:none; stroke-width:0px;"></path>
  <rect x="16.36" y="19.65" width="175.11" height="82.06" rx="7.71" ry="7.71" style="fill:#fff; stroke-width:0px;"></rect>
  <path d="m69.4,91.77h-37.35c-1.72,0-3.11-1.39-3.11-3.11v-55.97c0-1.72,1.39-3.11,3.11-3.11h37.35c1.72,0,3.11,1.39,3.11,3.11v55.97c0,1.72-1.39,3.11-3.11,3.11ZM32.05,30.94c-.97,0-1.76.79-1.76,1.76v55.97c0,.97.79,1.76,1.76,1.76h37.35c.97,0,1.76-.79,1.76-1.76v-55.97c0-.97-.79-1.76-1.76-1.76h-37.35Z" style="fill:#e5ecff; stroke-width:0px;"></path>
  <path d="m51.1,39.64l1.63,3.31c.06.12.18.2.3.22l3.65.53c.33.05.47.46.22.7l-2.65,2.58c-.09.09-.14.23-.11.36l.62,3.64c.05.33-.29.59-.59.43l-3.27-1.72c-.12-.06-.26-.06-.38,0l-3.27,1.72c-.3.16-.65-.09-.59-.43l.62-3.64c.02-.14-.02-.27-.11-.36l-2.65-2.58c-.24-.24-.11-.65.22-.7l3.65-.53c.14-.02.25-.1.3-.22l1.63-3.31c.15-.3.58-.3.73,0h.01Z" style="fill:#3b28cc; stroke-width:0px;"></path>
  <path d="m41.76,62.05v7.62h-.92v-6.65h-.04l-1.86,1.24v-.94l1.91-1.26h.92Z" style="fill:#3b28cc; stroke-width:0px;"></path>
  <path d="m46.43,69.78c-.56,0-1.04-.15-1.43-.46-.39-.31-.7-.75-.9-1.33-.21-.58-.31-1.29-.31-2.12s.1-1.53.31-2.11c.21-.58.51-1.03.91-1.34.4-.31.87-.46,1.43-.46s1.03.15,1.43.46c.4.31.7.75.91,1.34.21.58.31,1.29.31,2.11s-.1,1.53-.31,2.12c-.21.58-.51,1.03-.9,1.33-.39.31-.87.46-1.43.46Zm0-.82c.56,0,.99-.27,1.29-.8.31-.54.46-1.3.46-2.29,0-.66-.07-1.22-.21-1.69-.14-.46-.34-.82-.6-1.06s-.58-.37-.94-.37c-.55,0-.98.27-1.29.81-.31.54-.46,1.31-.46,2.3,0,.66.07,1.22.21,1.68.14.46.34.81.6,1.05.26.24.58.36.95.36Z" style="fill:#3b28cc; stroke-width:0px;"></path>
  <path d="m52.98,69.78c-.56,0-1.04-.15-1.43-.46-.39-.31-.7-.75-.9-1.33-.21-.58-.31-1.29-.31-2.12s.1-1.53.31-2.11c.21-.58.51-1.03.91-1.34.4-.31.87-.46,1.43-.46s1.03.15,1.43.46c.4.31.7.75.91,1.34.21.58.31,1.29.31,2.11s-.1,1.53-.31,2.12c-.21.58-.51,1.03-.9,1.33-.39.31-.87.46-1.43.46Zm0-.82c.56,0,.99-.27,1.29-.8.31-.54.46-1.3.46-2.29,0-.66-.07-1.22-.21-1.69-.14-.46-.34-.82-.6-1.06s-.58-.37-.94-.37c-.55,0-.98.27-1.29.81-.31.54-.46,1.31-.46,2.3,0,.66.07,1.22.21,1.68.14.46.34.81.6,1.05.26.24.58.36.95.36Z" style="fill:#3b28cc; stroke-width:0px;"></path>
  <path d="m57.25,66.29v-.83h4.91v.83h-4.91Zm2.04,2.04v-4.91h.83v4.91h-.83Z" style="fill:#3b28cc; stroke-width:0px;"></path>
  <path d="m46.64,77.61v3.75h-.44l-2.04-2.94h-.04v2.94h-.45v-3.75h.44l2.05,2.95h.04v-2.95h.45Z" style="fill:#e5ecff; stroke-width:0px;"></path>
  <path d="m47.7,81.36h-.48l1.38-3.75h.47l1.38,3.75h-.48l-1.12-3.15h-.03l-1.12,3.15Zm.18-1.46h1.92v.4h-1.92v-.4Z" style="fill:#e5ecff; stroke-width:0px;"></path>
  <path d="m51.03,77.61h.54l1.27,3.11h.04l1.27-3.11h.54v3.75h-.42v-2.85h-.04l-1.17,2.85h-.41l-1.17-2.85h-.04v2.85h-.42v-3.75Z" style="fill:#e5ecff; stroke-width:0px;"></path>
  <path d="m55.61,81.36v-3.75h2.26v.4h-1.81v1.27h1.69v.4h-1.69v1.27h1.84v.4h-2.29Z" style="fill:#e5ecff; stroke-width:0px;"></path>
  <path d="m122.59,91.77h-37.35c-1.72,0-3.11-1.39-3.11-3.11v-55.97c0-1.72,1.39-3.11,3.11-3.11h37.35c1.72,0,3.11,1.39,3.11,3.11v55.97c0,1.72-1.39,3.11-3.11,3.11Zm-37.35-60.83c-.97,0-1.76.79-1.76,1.76v55.97c0,.97.79,1.76,1.76,1.76h37.35c.97,0,1.76-.79,1.76-1.76v-55.97c0-.97-.79-1.76-1.76-1.76h-37.35Z" style="fill:#e5ecff; stroke-width:0px;"></path>
  <path d="m104.29,39.64l1.63,3.31c.06.12.18.2.3.22l3.65.53c.33.05.47.46.22.7l-2.65,2.58c-.09.09-.14.23-.11.36l.62,3.64c.05.33-.29.59-.59.43l-3.27-1.72c-.12-.06-.26-.06-.38,0l-3.27,1.72c-.3.16-.65-.09-.59-.43l.62-3.64c.02-.14-.02-.27-.11-.36l-2.65-2.58c-.24-.24-.11-.65.22-.7l3.65-.53c.14-.02.25-.1.3-.22l1.63-3.31c.15-.3.58-.3.73,0h.01Z" style="fill:#3b28cc; stroke-width:0px;"></path>
  <path d="m94.81,69.67v-.67l2.51-2.75c.3-.32.54-.6.73-.84.19-.24.33-.46.43-.68.09-.21.14-.43.14-.67,0-.27-.06-.5-.19-.7s-.3-.35-.52-.45-.47-.16-.74-.16c-.29,0-.55.06-.76.18-.22.12-.38.29-.5.5-.12.22-.18.47-.18.76h-.88c0-.45.1-.84.31-1.18.21-.34.49-.6.84-.79.36-.19.76-.28,1.2-.28s.84.09,1.19.28.62.44.81.76c.2.32.29.68.29,1.07,0,.28-.05.55-.15.82s-.27.56-.52.89c-.25.33-.59.72-1.03,1.19l-1.71,1.83v.06h3.54v.82h-4.81Z" style="fill:#3b28cc; stroke-width:0px;"></path>
  <path d="m103.63,69.78c-.56,0-1.04-.15-1.43-.46-.39-.31-.7-.75-.9-1.33-.21-.58-.31-1.29-.31-2.12s.1-1.53.31-2.11c.21-.58.51-1.03.91-1.34.4-.31.87-.46,1.43-.46s1.03.15,1.43.46c.4.31.7.75.91,1.34.21.58.31,1.29.31,2.11s-.1,1.53-.31,2.12c-.21.58-.51,1.03-.9,1.33-.39.31-.87.46-1.43.46Zm0-.82c.56,0,.99-.27,1.29-.8.31-.54.46-1.3.46-2.29,0-.66-.07-1.22-.21-1.69-.14-.46-.34-.82-.6-1.06s-.58-.37-.94-.37c-.55,0-.98.27-1.29.81-.31.54-.46,1.31-.46,2.3,0,.66.07,1.22.21,1.68.14.46.34.81.6,1.05.26.24.58.36.95.36Z" style="fill:#3b28cc; stroke-width:0px;"></path>
  <path d="m107.9,66.29v-.83h4.91v.83h-4.91Zm2.04,2.04v-4.91h.83v4.91h-.83Z" style="fill:#3b28cc; stroke-width:0px;"></path>
  <path d="m99.83,77.61v3.75h-.44l-2.04-2.94h-.04v2.94h-.45v-3.75h.44l2.05,2.95h.04v-2.95h.45Z" style="fill:#e5ecff; stroke-width:0px;"></path>
  <path d="m100.89,81.36h-.48l1.38-3.75h.47l1.38,3.75h-.48l-1.12-3.15h-.03l-1.12,3.15Zm.18-1.46h1.92v.4h-1.92v-.4Z" style="fill:#e5ecff; stroke-width:0px;"></path>
  <path d="m104.22,77.61h.54l1.27,3.11h.04l1.27-3.11h.54v3.75h-.42v-2.85h-.04l-1.17,2.85h-.41l-1.17-2.85h-.04v2.85h-.42v-3.75Z" style="fill:#e5ecff; stroke-width:0px;"></path>
  <path d="m108.8,81.36v-3.75h2.26v.4h-1.81v1.27h1.69v.4h-1.69v1.27h1.84v.4h-2.29Z" style="fill:#e5ecff; stroke-width:0px;"></path>
  <path d="m175.78,91.77h-37.35c-1.72,0-3.11-1.39-3.11-3.11v-55.97c0-1.72,1.39-3.11,3.11-3.11h37.35c1.72,0,3.11,1.39,3.11,3.11v55.97c0,1.72-1.39,3.11-3.11,3.11Zm-37.35-60.83c-.97,0-1.76.79-1.76,1.76v55.97c0,.97.79,1.76,1.76,1.76h37.35c.97,0,1.76-.79,1.76-1.76v-55.97c0-.97-.79-1.76-1.76-1.76h-37.35Z" style="fill:#e5ecff; stroke-width:0px;"></path>
  <path d="m157.47,39.64l1.63,3.31c.06.12.18.2.3.22l3.65.53c.33.05.47.46.22.7l-2.65,2.58c-.09.09-.14.23-.11.36l.62,3.64c.05.33-.29.59-.59.43l-3.27-1.72c-.12-.06-.26-.06-.38,0l-3.27,1.72c-.3.16-.65-.09-.59-.43l.62-3.64c.02-.14-.02-.27-.11-.36l-2.65-2.58c-.24-.24-.11-.65.22-.7l3.65-.53c.14-.02.25-.1.3-.22l1.63-3.31c.15-.3.58-.3.73,0h.01Z" style="fill:#3b28cc; stroke-width:0px;"></path>
  <path d="m147.62,68.11v-.76l3.35-5.3h.55v1.18h-.37l-2.53,4v.06h4.51v.82h-5.51Zm3.59,1.56v-7.62h.88v7.62h-.88Z" style="fill:#3b28cc; stroke-width:0px;"></path>
  <path d="m157.01,69.78c-.56,0-1.04-.15-1.43-.46-.39-.31-.7-.75-.9-1.33-.21-.58-.31-1.29-.31-2.12s.1-1.53.31-2.11c.21-.58.51-1.03.91-1.34.4-.31.87-.46,1.43-.46s1.03.15,1.43.46c.4.31.7.75.91,1.34.21.58.31,1.29.31,2.11s-.1,1.53-.31,2.12c-.21.58-.51,1.03-.9,1.33-.39.31-.87.46-1.43.46Zm0-.82c.56,0,.99-.27,1.29-.8.31-.54.46-1.3.46-2.29,0-.66-.07-1.22-.21-1.69-.14-.46-.34-.82-.6-1.06s-.58-.37-.94-.37c-.55,0-.98.27-1.29.81-.31.54-.46,1.31-.46,2.3,0,.66.07,1.22.21,1.68.14.46.34.81.6,1.05.26.24.58.36.95.36Z" style="fill:#3b28cc; stroke-width:0px;"></path>
  <path d="m161.29,66.29v-.83h4.91v.83h-4.91Zm2.04,2.04v-4.91h.83v4.91h-.83Z" style="fill:#3b28cc; stroke-width:0px;"></path>
  <path d="m153.02,77.61v3.75h-.44l-2.04-2.94h-.04v2.94h-.45v-3.75h.44l2.05,2.95h.04v-2.95h.45Z" style="fill:#e5ecff; stroke-width:0px;"></path>
  <path d="m154.08,81.36h-.48l1.38-3.75h.47l1.38,3.75h-.48l-1.12-3.15h-.03l-1.12,3.15Zm.18-1.46h1.92v.4h-1.92v-.4Z" style="fill:#e5ecff; stroke-width:0px;"></path>
  <path d="m157.41,77.61h.54l1.27,3.11h.04l1.27-3.11h.54v3.75h-.42v-2.85h-.04l-1.17,2.85h-.41l-1.17-2.85h-.04v2.85h-.42v-3.75Z" style="fill:#e5ecff; stroke-width:0px;"></path>
  <path d="m161.99,81.36v-3.75h2.26v.4h-1.81v1.27h1.69v.4h-1.69v1.27h1.84v.4h-2.29Z" style="fill:#e5ecff; stroke-width:0px;"></path>
</svg>
